<mxfile host="app.diagrams.net" modified="2021-06-28T13:42:23.142Z" agent="5.0 (Windows NT 10.0; Win64; x64) AppleWebKit/537.36 (KHTML, like Gecko) Chrome/91.0.4472.114 Safari/537.36" etag="vDzcwNCKo5mYAE5f7Khq" version="14.8.0" type="github">
  <diagram id="W1rA2JD8DQ6to9c7Lf8z" name="第 1 页">
    <mxGraphModel dx="1697" dy="928" grid="1" gridSize="10" guides="1" tooltips="1" connect="1" arrows="1" fold="1" page="1" pageScale="1" pageWidth="827" pageHeight="1169" math="0" shadow="0">
      <root>
        <mxCell id="0" />
        <mxCell id="1" parent="0" />
        <mxCell id="PdDfqPffBBl9iaWNdr4m-1" value="kafka" style="rounded=1;whiteSpace=wrap;html=1;" vertex="1" parent="1">
          <mxGeometry x="354" y="120" width="96" height="30" as="geometry" />
        </mxCell>
        <mxCell id="PdDfqPffBBl9iaWNdr4m-2" value="爬虫" style="rounded=0;whiteSpace=wrap;html=1;" vertex="1" parent="1">
          <mxGeometry x="190" y="30" width="110" height="30" as="geometry" />
        </mxCell>
        <mxCell id="PdDfqPffBBl9iaWNdr4m-3" value="第三方" style="rounded=0;whiteSpace=wrap;html=1;" vertex="1" parent="1">
          <mxGeometry x="480" y="30" width="100" height="30" as="geometry" />
        </mxCell>
        <mxCell id="PdDfqPffBBl9iaWNdr4m-8" value="" style="endArrow=classic;html=1;exitX=0.5;exitY=1;exitDx=0;exitDy=0;" edge="1" parent="1" source="PdDfqPffBBl9iaWNdr4m-2">
          <mxGeometry width="50" height="50" relative="1" as="geometry">
            <mxPoint x="390" y="500" as="sourcePoint" />
            <mxPoint x="350" y="140" as="targetPoint" />
            <Array as="points">
              <mxPoint x="245" y="140" />
            </Array>
          </mxGeometry>
        </mxCell>
        <mxCell id="PdDfqPffBBl9iaWNdr4m-9" value="" style="endArrow=classic;html=1;exitX=0.5;exitY=1;exitDx=0;exitDy=0;entryX=1;entryY=0.5;entryDx=0;entryDy=0;" edge="1" parent="1" source="PdDfqPffBBl9iaWNdr4m-3" target="PdDfqPffBBl9iaWNdr4m-1">
          <mxGeometry width="50" height="50" relative="1" as="geometry">
            <mxPoint x="255" y="70" as="sourcePoint" />
            <mxPoint x="360" y="150" as="targetPoint" />
            <Array as="points">
              <mxPoint x="530" y="135" />
            </Array>
          </mxGeometry>
        </mxCell>
        <mxCell id="PdDfqPffBBl9iaWNdr4m-10" value="structured streaming" style="rounded=1;whiteSpace=wrap;html=1;" vertex="1" parent="1">
          <mxGeometry x="342" y="200" width="120" height="30" as="geometry" />
        </mxCell>
        <mxCell id="PdDfqPffBBl9iaWNdr4m-11" value="" style="endArrow=classic;html=1;exitX=0.5;exitY=1;exitDx=0;exitDy=0;entryX=0.5;entryY=0;entryDx=0;entryDy=0;" edge="1" parent="1" source="PdDfqPffBBl9iaWNdr4m-1" target="PdDfqPffBBl9iaWNdr4m-10">
          <mxGeometry width="50" height="50" relative="1" as="geometry">
            <mxPoint x="540" y="70" as="sourcePoint" />
            <mxPoint x="460" y="145" as="targetPoint" />
          </mxGeometry>
        </mxCell>
        <mxCell id="PdDfqPffBBl9iaWNdr4m-12" value="redis" style="shape=cylinder3;whiteSpace=wrap;html=1;boundedLbl=1;backgroundOutline=1;size=15;" vertex="1" parent="1">
          <mxGeometry x="610" y="175" width="60" height="80" as="geometry" />
        </mxCell>
        <mxCell id="PdDfqPffBBl9iaWNdr4m-13" value="" style="endArrow=classic;startArrow=classic;html=1;entryX=0;entryY=0.5;entryDx=0;entryDy=0;entryPerimeter=0;" edge="1" parent="1" target="PdDfqPffBBl9iaWNdr4m-12">
          <mxGeometry width="50" height="50" relative="1" as="geometry">
            <mxPoint x="470" y="215" as="sourcePoint" />
            <mxPoint x="440" y="400" as="targetPoint" />
          </mxGeometry>
        </mxCell>
        <mxCell id="PdDfqPffBBl9iaWNdr4m-16" value="聚类中心" style="text;html=1;strokeColor=none;fillColor=none;align=center;verticalAlign=middle;whiteSpace=wrap;rounded=0;" vertex="1" parent="1">
          <mxGeometry x="510" y="190" width="70" height="20" as="geometry" />
        </mxCell>
        <mxCell id="PdDfqPffBBl9iaWNdr4m-17" value="kafka" style="rounded=1;whiteSpace=wrap;html=1;" vertex="1" parent="1">
          <mxGeometry x="354" y="290" width="96" height="30" as="geometry" />
        </mxCell>
        <mxCell id="PdDfqPffBBl9iaWNdr4m-18" value="" style="endArrow=classic;html=1;exitX=0.5;exitY=1;exitDx=0;exitDy=0;entryX=0.5;entryY=0;entryDx=0;entryDy=0;" edge="1" parent="1" source="PdDfqPffBBl9iaWNdr4m-10">
          <mxGeometry width="50" height="50" relative="1" as="geometry">
            <mxPoint x="401.5" y="240" as="sourcePoint" />
            <mxPoint x="401.5" y="290" as="targetPoint" />
          </mxGeometry>
        </mxCell>
        <mxCell id="PdDfqPffBBl9iaWNdr4m-19" value="" style="endArrow=classic;html=1;exitX=0.5;exitY=1;exitDx=0;exitDy=0;entryX=0.5;entryY=0;entryDx=0;entryDy=0;" edge="1" parent="1" target="PdDfqPffBBl9iaWNdr4m-21">
          <mxGeometry width="50" height="50" relative="1" as="geometry">
            <mxPoint x="400" y="320" as="sourcePoint" />
            <mxPoint x="320" y="395" as="targetPoint" />
          </mxGeometry>
        </mxCell>
        <mxCell id="PdDfqPffBBl9iaWNdr4m-20" value="" style="endArrow=classic;html=1;exitX=0.5;exitY=1;exitDx=0;exitDy=0;entryX=0.5;entryY=0;entryDx=0;entryDy=0;" edge="1" parent="1" target="PdDfqPffBBl9iaWNdr4m-22">
          <mxGeometry width="50" height="50" relative="1" as="geometry">
            <mxPoint x="400" y="320" as="sourcePoint" />
            <mxPoint x="490" y="390" as="targetPoint" />
          </mxGeometry>
        </mxCell>
        <mxCell id="PdDfqPffBBl9iaWNdr4m-21" value="hdfs" style="rounded=1;whiteSpace=wrap;html=1;" vertex="1" parent="1">
          <mxGeometry x="270" y="400" width="96" height="30" as="geometry" />
        </mxCell>
        <mxCell id="PdDfqPffBBl9iaWNdr4m-22" value="mysql" style="rounded=1;whiteSpace=wrap;html=1;" vertex="1" parent="1">
          <mxGeometry x="440" y="400" width="96" height="30" as="geometry" />
        </mxCell>
        <mxCell id="PdDfqPffBBl9iaWNdr4m-23" value="fulme" style="text;html=1;align=center;verticalAlign=middle;resizable=0;points=[];autosize=1;strokeColor=none;" vertex="1" parent="1">
          <mxGeometry x="314" y="350" width="40" height="20" as="geometry" />
        </mxCell>
      </root>
    </mxGraphModel>
  </diagram>
</mxfile>
